<svg width="80" height="50" viewBox="0 0 80 50" fill="none" xmlns="http://www.w3.org/2000/svg">
<path d="M9.01758 38.3643V31.4824H13.7637C15.0029 31.4824 16.1104 31.311 17.0859 30.9683C18.0879 30.5991 18.9316 30.085 19.6172 29.4258C20.3027 28.7402 20.8301 27.9229 21.1992 26.9736C21.5684 25.9981 21.7529 24.9038 21.7529 23.6909C21.7529 22.4253 21.5684 21.3179 21.1992 20.3687C20.8301 19.3931 20.3027 18.5889 19.6172 17.9561C18.9316 17.2969 18.0879 16.8091 17.0859 16.4927C16.1104 16.1499 15.0029 15.9785 13.7637 15.9785H9.01758V9.09668H13.4473C16.0576 9.09668 18.3384 9.46582 20.2896 10.2041C22.2671 10.9424 23.915 11.9707 25.2334 13.2891C26.5518 14.5811 27.5405 16.084 28.1997 17.7979C28.8589 19.5117 29.1885 21.3311 29.1885 23.2559V24.126C29.1885 25.8926 28.8589 27.6328 28.1997 29.3467C27.5405 31.0342 26.5518 32.5635 25.2334 33.9346C23.915 35.2793 22.2671 36.3604 20.2896 37.1777C18.3384 37.9688 16.0576 38.3643 13.4473 38.3643H9.01758ZM2.45215 38.3643V9.09668H9.8086V38.3643H2.45215Z" fill="white"/>
<path d="M9.01758 38.3643V31.4824H13.7637C15.0029 31.4824 16.1104 31.311 17.0859 30.9683C18.0879 30.5991 18.9316 30.085 19.6172 29.4258C20.3027 28.7402 20.8301 27.9229 21.1992 26.9736C21.5684 25.9981 21.7529 24.9038 21.7529 23.6909C21.7529 22.4253 21.5684 21.3179 21.1992 20.3687C20.8301 19.3931 20.3027 18.5889 19.6172 17.9561C18.9316 17.2969 18.0879 16.8091 17.0859 16.4927C16.1104 16.1499 15.0029 15.9785 13.7637 15.9785H9.01758V9.09668H13.4473C16.0576 9.09668 18.3384 9.46582 20.2896 10.2041C22.2671 10.9424 23.915 11.9707 25.2334 13.2891C26.5518 14.5811 27.5405 16.084 28.1997 17.7979C28.8589 19.5117 29.1885 21.3311 29.1885 23.2559V24.126C29.1885 25.8926 28.8589 27.6328 28.1997 29.3467C27.5405 31.0342 26.5518 32.5635 25.2334 33.9346C23.915 35.2793 22.2671 36.3604 20.2896 37.1777C18.3384 37.9688 16.0576 38.3643 13.4473 38.3643H9.01758ZM2.45215 38.3643V9.09668H9.8086V38.3643H2.45215Z" fill="white"/>
<path d="M5.2998 33.8159V13.6846H18.7075L25.9849 24.2446L18.7075 33.8159H5.2998Z" fill="white" stroke="white" stroke-width="1.58203"/>
<path d="M0 23.7305H6.56543M6.56543 23.7305L14.1196 15.7412M6.56543 23.7305L14.1196 31.7197M6.56543 23.7305H21.9507" stroke="#2D4258" stroke-width="1.97754"/>
<circle cx="14.3569" cy="15.5435" r="1.93799" fill="#2D4258"/>
<circle cx="22.2671" cy="23.5327" r="1.93799" fill="#2D4258"/>
<circle cx="14.3569" cy="32.0757" r="1.93799" fill="#2D4258"/>
<path d="M45.8789 38V31.5928H44.6924V24.7505C44.6924 23.7485 44.4551 23.0103 43.9805 22.5356C43.5322 22.0347 42.7808 21.7842 41.7261 21.7842C41.2251 21.7842 40.4868 21.7974 39.5112 21.8237C38.5356 21.8501 37.5073 21.8896 36.4263 21.9424C35.3452 21.9951 34.3564 22.0479 33.46 22.1006V16.0889C34.0928 16.0361 34.8442 15.9834 35.7144 15.9307C36.5845 15.8779 37.481 15.8384 38.4038 15.812C39.353 15.7856 40.2231 15.7725 41.0142 15.7725C43.2554 15.7725 45.1538 16.102 46.7095 16.7612C48.2915 17.4204 49.4912 18.4092 50.3086 19.7275C51.1523 21.0459 51.5742 22.7202 51.5742 24.7505V38H45.8789ZM38.9575 38.5537C37.4282 38.5537 36.0703 38.2769 34.8838 37.7231C33.6973 37.1694 32.7612 36.3784 32.0757 35.3501C31.4165 34.2954 31.0869 33.043 31.0869 31.5928C31.0869 29.958 31.522 28.6396 32.3921 27.6377C33.2622 26.6094 34.4619 25.8579 35.9912 25.3833C37.5205 24.9087 39.2739 24.6714 41.2515 24.6714H45.4834V28.3892H41.2515C40.2759 28.3892 39.5244 28.6396 38.9971 29.1406C38.4697 29.6152 38.2061 30.2612 38.2061 31.0786C38.2061 31.8696 38.4697 32.5156 38.9971 33.0166C39.5244 33.4912 40.2759 33.7285 41.2515 33.7285C41.8843 33.7285 42.438 33.623 42.9126 33.4121C43.4136 33.1748 43.8223 32.7793 44.1387 32.2256C44.4551 31.6719 44.6396 30.9072 44.6924 29.9316L46.3535 31.5137C46.2217 33.0166 45.8525 34.2954 45.2461 35.3501C44.666 36.3784 43.8486 37.1694 42.7939 37.7231C41.7656 38.2769 40.4868 38.5537 38.9575 38.5537ZM54.0109 38L60.4577 26.2139L60.2995 27.2422L54.2087 16.168H61.9606L65.4806 23.3267H66.1135L69.4357 16.168H76.7131L70.8991 27.4399L71.0573 26.5698L77.8996 38H70.1476L65.8762 30.3667H65.2433L61.2883 38H54.0109Z" fill="white"/>
</svg>
